<svg width="138" height="33" viewBox="0 0 138 33" fill="none" xmlns="http://www.w3.org/2000/svg">
<path d="M135.851 0.214844C136.267 0.214844 136.725 0.429737 137.226 0.859523C137.742 1.28931 138 1.6403 138 1.9125C138 2.81505 137.785 4.38377 137.355 6.61865C136.94 8.83921 136.403 10.9667 135.744 13.001C135.085 15.0353 134.49 16.0524 133.96 16.0524C133.745 16.0524 133.466 15.9378 133.122 15.7086C132.778 15.4651 132.549 15.1857 132.434 14.8705C132.32 14.541 132.098 13.8677 131.768 12.8505C131.009 10.5154 130.292 8.58134 129.619 7.04844C129.519 7.47822 129.383 8.08709 129.211 8.87503C129.053 9.66297 128.924 10.2862 128.824 10.7446C128.724 11.1887 128.602 11.7331 128.459 12.3778C128.315 13.0081 128.187 13.5095 128.072 13.882C127.972 14.2545 127.857 14.627 127.728 14.9995C127.499 15.7015 127.284 16.0524 127.083 16.0524C126.797 16.0524 126.424 15.7946 125.966 15.2788C125.508 14.7488 125.278 14.2975 125.278 13.925C125.278 13.5382 125.687 11.5397 126.503 7.9295C127.334 4.3193 127.785 2.05576 127.857 1.13888C127.9 0.594488 128.065 0.32229 128.351 0.32229C128.595 0.32229 128.903 0.465552 129.275 0.752077C129.662 1.0386 129.992 1.38959 130.264 1.80505C130.55 2.20619 131.059 3.53136 131.79 5.78057C132.52 8.02978 133.1 9.64148 133.53 10.6157C134.089 8.95382 134.605 6.44674 135.077 3.09441C135.264 1.76207 135.385 0.952643 135.443 0.666119C135.5 0.365269 135.636 0.214844 135.851 0.214844Z" fill="#111111"/>
<path d="M118.184 12.3563C119.015 11.6113 119.738 10.6801 120.354 9.56267C120.97 8.4309 121.278 7.34927 121.278 6.31779C121.278 5.2863 121.149 4.4912 120.891 3.93248C120.634 3.37375 120.275 3.09439 119.817 3.09439C119.359 3.09439 118.757 3.50985 118.012 4.34077C117.281 5.15737 116.615 6.23183 116.013 7.56417C115.426 8.8965 115.132 10.1715 115.132 11.3893C115.132 12.0053 115.218 12.5067 115.39 12.8935C115.562 13.266 115.777 13.4522 116.035 13.4522C116.637 13.4522 117.353 13.0869 118.184 12.3563ZM116.056 16.0524C114.996 16.0524 114.051 15.5367 113.22 14.5052C112.389 13.4594 111.973 12.4207 111.973 11.3893C111.973 10.0712 112.224 8.72459 112.726 7.34927C113.227 5.95963 113.85 4.76339 114.595 3.76056C115.354 2.7434 116.185 1.91248 117.088 1.2678C117.99 0.608799 118.821 0.279297 119.581 0.279297C120.97 0.279297 122.109 0.873834 122.997 2.06291C123.886 3.23766 124.33 4.56283 124.33 6.03843C124.33 7.51402 123.957 9.01111 123.212 10.5297C122.467 12.0339 121.436 13.3305 120.118 14.4192C118.814 15.508 117.46 16.0524 116.056 16.0524Z" fill="#111111"/>
<path d="M104.239 0C104.598 0 105.034 0.236382 105.55 0.709146C106.066 1.18191 106.324 1.669 106.324 2.17042C106.324 3.54573 105.615 6.2104 104.196 10.1644C103.709 11.5541 103.466 12.5211 103.466 13.0655C103.466 13.1371 103.48 13.1801 103.509 13.1944C103.537 13.2087 103.802 13.2159 104.304 13.2159C104.805 13.2159 105.493 13.1443 106.367 13.001C107.255 12.8434 107.971 12.693 108.516 12.5497C109.074 12.4065 109.404 12.3349 109.504 12.3349C109.862 12.3349 110.042 12.5641 110.042 13.0225C110.042 13.9251 109.354 14.6557 107.979 15.2144C106.618 15.7588 105.035 16.031 103.229 16.031C102.527 16.031 101.883 15.7731 101.295 15.2574C100.722 14.7273 100.436 14.1471 100.436 13.5168C100.436 12.8864 100.966 10.8521 102.026 7.4138C103.086 3.96119 103.616 1.72631 103.616 0.709146C103.616 0.236382 103.824 0 104.239 0Z" fill="#111111"/>
<path d="M92.5084 0C92.8666 0 93.3035 0.236382 93.8193 0.709146C94.335 1.18191 94.5929 1.669 94.5929 2.17042C94.5929 3.54573 93.8838 6.2104 92.4655 10.1644C91.9784 11.5541 91.7348 12.5211 91.7348 13.0655C91.7348 13.1371 91.7492 13.1801 91.7778 13.1944C91.8065 13.2087 92.0715 13.2159 92.5729 13.2159C93.0743 13.2159 93.762 13.1443 94.6359 13.001C95.5241 12.8434 96.2404 12.693 96.7848 12.5497C97.3435 12.4065 97.673 12.3349 97.7733 12.3349C98.1315 12.3349 98.3105 12.5641 98.3105 13.0225C98.3105 13.9251 97.6229 14.6557 96.2476 15.2144C94.8866 15.7588 93.3035 16.031 91.4984 16.031C90.7965 16.031 90.1518 15.7731 89.5644 15.2574C88.9914 14.7273 88.7048 14.1471 88.7048 13.5168C88.7048 12.8864 89.2349 10.8521 90.295 7.4138C91.3552 3.96119 91.8853 1.72631 91.8853 0.709146C91.8853 0.236382 92.093 0 92.5084 0Z" fill="#111111"/>
<path d="M84.1579 16.0524C83.8714 16.0524 83.4846 15.7587 82.9975 15.1714C82.5104 14.5697 82.2668 14.1327 82.2668 13.8605C82.2668 13.5883 82.6178 11.597 83.3198 7.8865C84.0361 4.16169 84.4086 1.87666 84.4373 1.03141C84.4659 0.558648 84.688 0.322266 85.1034 0.322266C85.4473 0.322266 85.9057 0.666095 86.4787 1.35375C87.0518 2.04141 87.3383 2.68609 87.3383 3.28779C87.3383 3.54566 87.1377 4.51984 86.7366 6.21033C86.3498 7.8865 86.0848 9.06124 85.9415 9.73457C85.8126 10.3936 85.698 10.9881 85.5977 11.5182C85.4974 12.0339 85.4186 12.4422 85.3613 12.7431C84.9602 14.5768 84.645 15.6298 84.4158 15.902C84.3298 16.0023 84.2439 16.0524 84.1579 16.0524Z" fill="#111111"/>
<path d="M69.2442 0.279297C70.3616 0.279297 71.5793 0.508516 72.8974 0.966954C74.2297 1.42539 75.4618 2.02709 76.5935 2.77205C77.7396 3.51702 78.6923 4.4124 79.4516 5.45822C80.2252 6.50403 80.612 7.56417 80.612 8.63863C80.612 9.4409 79.9602 10.4437 78.6565 11.6471C77.3671 12.8362 75.87 13.8677 74.1652 14.7416C72.4604 15.6155 71.0636 16.0524 69.9748 16.0524C69.7313 16.0524 69.3373 15.7373 68.7929 15.1069C68.2628 14.4622 67.9978 13.9895 67.9978 13.6886C67.9978 13.1012 68.3846 11.4681 69.1582 8.78906C69.9462 6.09573 70.4333 4.24765 70.6195 3.24482C70.1038 2.90099 69.674 2.49269 69.3301 2.01993C68.9863 1.53284 68.8144 1.12454 68.8144 0.79504C68.8144 0.451211 68.9577 0.279297 69.2442 0.279297ZM77.5176 8.03693C77.5176 7.57849 77.0949 6.97679 76.2497 6.23183C75.4044 5.47254 74.4231 4.84219 73.3057 4.34077C73.2197 5.41524 72.6108 7.71459 71.4791 11.2388C71.4218 11.4251 71.3286 11.7331 71.1997 12.1629C71.0851 12.5783 70.9991 12.8577 70.9418 13.001C72.3458 12.5282 73.7927 11.7331 75.2827 10.6156C76.7726 9.48388 77.5176 8.6243 77.5176 8.03693Z" fill="#111111"/>
<path d="M52.1053 7.02684C52.8646 7.02684 53.6812 6.99102 54.5551 6.91939C55.429 6.83344 55.9663 6.79046 56.1668 6.79046C56.3817 6.79046 56.5465 6.8406 56.6611 6.94088C56.79 7.04117 56.8545 7.16294 56.8545 7.3062C56.8545 7.93655 56.2599 8.43797 55.0709 8.81045C53.8818 9.18293 52.6139 9.39783 51.2673 9.45513C50.7085 11.1886 50.4292 12.2846 50.4292 12.743C50.4292 12.9865 50.551 13.1083 50.7945 13.1083C52.4277 13.1083 54.111 12.8934 55.8445 12.4636C56.4318 12.306 56.7685 12.2272 56.8545 12.2272C57.1267 12.2272 57.2628 12.4207 57.2628 12.8075C57.2628 13.3232 56.8831 13.8246 56.1238 14.3117C55.3645 14.7988 54.4119 15.1856 53.2658 15.4721C52.1197 15.7587 50.9951 15.9019 49.8919 15.9019C49.2329 15.9019 48.6384 15.6584 48.1083 15.1713C47.5783 14.6699 47.3132 14.0897 47.3132 13.4306C47.3132 12.7573 47.6785 11.0812 48.4092 8.40216C49.1541 5.72316 49.5481 3.70316 49.5911 2.34218C49.5768 2.2992 49.5696 2.21324 49.5696 2.0843C49.5696 1.88374 49.5983 1.72615 49.6556 1.61154C49.8132 1.21041 50.2501 0.959698 50.9664 0.859415C51.6827 0.744805 52.9721 0.6875 54.8345 0.6875C57.9289 0.6875 59.4762 1.03133 59.4762 1.71899C59.4762 2.1631 59.0965 2.47111 58.3372 2.64303C57.8215 2.75764 57.1123 2.86508 56.2098 2.96536C54.8202 3.12295 53.5809 3.35217 52.4921 3.65302C52.4921 4.6272 52.3202 5.75181 51.9764 7.02684H52.1053Z" fill="#111111"/>
<path d="M46.3414 0.322266C46.7425 0.322266 47.1436 0.472691 47.5448 0.773541C47.9602 1.06006 48.168 1.33943 48.168 1.61162C48.168 1.88382 48.1107 2.18467 47.996 2.51417C47.8958 2.84368 47.7238 3.25914 47.4803 3.76055C47.2511 4.24764 47.0147 4.72757 46.7712 5.20033C46.5419 5.65877 46.2339 6.26764 45.8471 7.02692C45.4603 7.77189 45.1236 8.43805 44.8371 9.02543C44.5506 9.6128 44.2283 10.3076 43.8701 11.1099C43.5263 11.9122 43.2397 12.5712 43.0105 13.0869C42.7813 13.5883 42.5378 14.0826 42.2799 14.5697C41.7785 15.5438 41.2914 16.0309 40.8186 16.0309C40.6037 16.0309 40.3029 15.8733 39.9161 15.5582C39.5436 15.243 39.2929 14.9278 39.1639 14.6126C38.7485 13.5095 38.1969 11.2102 37.5093 7.71458C36.8216 4.21899 36.4778 2.11304 36.4778 1.39673C36.4778 0.68042 36.6712 0.322266 37.058 0.322266C37.5451 0.322266 38.0465 0.529996 38.5622 0.945456C39.078 1.36092 39.4791 1.91247 39.7656 2.60013C39.8803 2.88665 39.9877 3.49552 40.088 4.42672C40.2026 5.3436 40.3315 6.48969 40.4748 7.86501C40.6324 9.22599 40.7971 10.3936 40.969 11.3678C42.416 7.44238 43.5549 4.62012 44.3858 2.90098C45.2311 1.18184 45.8829 0.322266 46.3414 0.322266Z" fill="#111111"/>
<path d="M28.8324 7.02684C29.5917 7.02684 30.4083 6.99102 31.2822 6.91939C32.1561 6.83344 32.6933 6.79046 32.8939 6.79046C33.1088 6.79046 33.2735 6.8406 33.3881 6.94088C33.5171 7.04117 33.5815 7.16294 33.5815 7.3062C33.5815 7.93655 32.987 8.43797 31.7979 8.81045C30.6088 9.18293 29.341 9.39783 27.9943 9.45513C27.4356 11.1886 27.1562 12.2846 27.1562 12.743C27.1562 12.9865 27.278 13.1083 27.5215 13.1083C29.1547 13.1083 30.8381 12.8934 32.5715 12.4636C33.1589 12.306 33.4956 12.2272 33.5815 12.2272C33.8537 12.2272 33.9898 12.4207 33.9898 12.8075C33.9898 13.3232 33.6102 13.8246 32.8509 14.3117C32.0916 14.7988 31.1389 15.1856 29.9928 15.4721C28.8467 15.7587 27.7221 15.9019 26.619 15.9019C25.96 15.9019 25.3655 15.6584 24.8354 15.1713C24.3053 14.6699 24.0403 14.0897 24.0403 13.4306C24.0403 12.7573 24.4056 11.0812 25.1362 8.40216C25.8812 5.72316 26.2752 3.70316 26.3181 2.34218C26.3038 2.2992 26.2967 2.21324 26.2967 2.0843C26.2967 1.88374 26.3253 1.72615 26.3826 1.61154C26.5402 1.21041 26.9772 0.959698 27.6935 0.859415C28.4098 0.744805 29.6991 0.6875 31.5615 0.6875C34.656 0.6875 36.2032 1.03133 36.2032 1.71899C36.2032 2.1631 35.8236 2.47111 35.0643 2.64303C34.5485 2.75764 33.8394 2.86508 32.9368 2.96536C31.5472 3.12295 30.308 3.35217 29.2192 3.65302C29.2192 4.6272 29.0473 5.75181 28.7035 7.02684H28.8324Z" fill="#111111"/>
<path d="M17.0788 3.37395C15.5316 3.45991 14.6863 3.50289 14.5431 3.50289C14.1992 3.50289 13.8554 3.29516 13.5116 2.8797C13.1678 2.44991 12.9958 2.0058 12.9958 1.54736C12.9958 0.845377 15.0373 0.494385 19.1203 0.494385C21.2119 0.494385 22.752 0.709278 23.7405 1.13906C24.729 1.56885 25.2233 2.09176 25.2233 2.70778C25.2233 2.89402 25.1158 3.0731 24.9009 3.24501C24.686 3.4026 24.4138 3.4814 24.0843 3.4814C23.7548 3.4814 23.1531 3.45991 22.2792 3.41693C21.4053 3.37395 20.6102 3.3453 19.8939 3.33097C19.9512 3.50289 19.9799 3.70345 19.9799 3.93267C19.9799 4.16189 19.8939 4.61317 19.722 5.2865C19.5644 5.95983 19.3352 6.89819 19.0343 8.10159C18.7335 9.29067 18.404 10.7376 18.0458 12.4424C17.6877 14.1329 17.437 15.1429 17.2937 15.4724C17.1648 15.7876 17.0358 15.9452 16.9069 15.9452C16.606 15.9452 16.2264 15.673 15.768 15.1286C15.3239 14.5699 15.1018 14.1186 15.1018 13.7748C15.1018 13.4309 15.3955 12.0126 15.9829 9.51989C16.5702 7.0128 16.9356 4.96416 17.0788 3.37395Z" fill="#111111"/>
<path d="M10.6802 11.6044C10.6802 12.8221 10.1 13.8679 8.93954 14.7418C7.77912 15.6157 6.45395 16.0527 4.96403 16.0527C3.4741 16.0527 2.2707 15.6874 1.35383 14.9567C0.451275 14.2118 0 13.4453 0 12.6574C0 11.8694 0.222056 11.4755 0.666168 11.4755C1.01 11.4755 1.36815 11.6474 1.74063 11.9912C2.11311 12.335 2.52857 12.6789 2.98701 13.0227C3.45978 13.3665 3.98984 13.5384 4.57722 13.5384C5.16459 13.5384 5.83076 13.2949 6.57572 12.8078C7.32068 12.3207 7.69316 11.9124 7.69316 11.5829C7.69316 11.2534 7.28487 10.7019 6.46828 9.92824C5.66601 9.15462 4.85658 8.35952 4.03999 7.54292C3.23772 6.71201 2.83659 6.07449 2.83659 5.63038C2.83659 5.17194 2.91538 4.67769 3.07297 4.14762C3.24488 3.61755 3.45261 3.25223 3.69616 3.05166C4.46977 2.29238 5.46544 1.64053 6.68317 1.09614C7.91522 0.537417 8.99685 0.258057 9.92805 0.258057C10.4724 0.258057 10.9237 0.494439 11.2819 0.967203C11.64 1.42564 11.8191 1.90557 11.8191 2.40699C11.8191 2.60755 11.6544 2.7723 11.3249 2.90124C11.0097 3.01585 10.5441 3.13762 9.92805 3.26656C9.32635 3.39549 8.71032 3.58173 8.07997 3.82528C6.6187 4.36967 5.88806 4.82811 5.88806 5.20059C5.88806 5.37251 6.13877 5.68768 6.64019 6.14612C7.14161 6.59023 7.686 7.063 8.27338 7.56441C8.87508 8.05151 9.42663 8.67469 9.92805 9.43398C10.4295 10.1789 10.6802 10.9024 10.6802 11.6044Z" fill="#111111"/>
<path d="M91.1762 31.8925C91.4665 31.8925 91.6606 31.8191 91.7586 31.6722C91.8705 31.5043 91.9265 31.158 91.9265 30.6334V28.0993C91.9265 27.6796 91.8757 27.4016 91.7743 27.2652C91.6729 27.1253 91.4385 27.0553 91.0713 27.0553L91.1552 26.3943L93.0334 26.111C92.995 26.3943 92.9757 26.6951 92.9757 27.0133C93.4234 26.6461 93.8921 26.3803 94.3818 26.2159C94.5916 26.1424 94.8085 26.1057 95.0323 26.1057C95.2562 26.1057 95.473 26.1389 95.6829 26.2054C95.8962 26.2718 96.0816 26.3803 96.239 26.5307C96.5853 26.8559 96.7584 27.3404 96.7584 27.9839C96.7584 28.3757 96.7462 28.7586 96.7217 29.1329C96.6552 30.2556 96.6342 30.9394 96.6587 31.1842C96.6867 31.4291 96.7182 31.5917 96.7531 31.6722C96.8196 31.8191 96.9385 31.8925 97.1099 31.8925C97.2743 31.8925 97.4229 31.8715 97.5558 31.8295L97.4772 32.4486H94.791L94.8854 31.8925C95.1757 31.8925 95.3751 31.8295 95.4835 31.7036C95.529 31.6512 95.5622 31.5795 95.5832 31.4885C95.6077 31.3941 95.6269 31.2752 95.6409 31.1318C95.6584 30.9884 95.6724 30.8152 95.6829 30.6124C95.7039 30.1997 95.7144 29.7327 95.7144 29.2116C95.7144 28.6869 95.7039 28.3057 95.6829 28.0679C95.6654 27.8265 95.6199 27.6324 95.5465 27.4855C95.4066 27.1987 95.0988 27.0553 94.6231 27.0553C94.1824 27.0553 93.7172 27.2057 93.2276 27.5065L92.9757 27.6586V31.1842C92.9757 31.499 93.0002 31.6896 93.0492 31.7561C93.0982 31.8225 93.1541 31.8628 93.2171 31.8768C93.28 31.8873 93.35 31.8925 93.4269 31.8925C93.6053 31.8925 93.7714 31.8733 93.9253 31.8348L93.8361 32.4486H91.0923L91.1762 31.8925Z" fill="#111111"/>
<path d="M84.0623 29.2798C84.0623 28.8076 84.1497 28.3739 84.3246 27.9787C84.4995 27.58 84.7338 27.2407 85.0276 26.9609C85.6327 26.3908 86.3759 26.1057 87.2573 26.1057C88.1107 26.1057 88.7875 26.389 89.2877 26.9556C89.7669 27.4978 90.0064 28.2043 90.0064 29.0752C90.0064 30.065 89.6951 30.8922 89.0726 31.5567C88.4605 32.2038 87.7068 32.5273 86.8114 32.5273C85.93 32.5273 85.2427 32.2143 84.7495 31.5882C84.2913 31.0111 84.0623 30.2416 84.0623 29.2798ZM87.0475 31.861C87.3133 31.861 87.5476 31.8138 87.7505 31.7194C87.9568 31.6249 88.1352 31.4798 88.2856 31.2839C88.6144 30.8677 88.7788 30.2661 88.7788 29.4792C88.7788 28.6397 88.6179 27.9734 88.2961 27.4803C87.9708 26.9871 87.5284 26.7405 86.9688 26.7405C86.4756 26.7405 86.0751 26.9329 85.7673 27.3176C85.4281 27.7408 85.2584 28.3477 85.2584 29.1381C85.2584 29.9601 85.4176 30.6159 85.7359 31.1055C86.0611 31.6092 86.4983 31.861 87.0475 31.861Z" fill="#111111"/>
<path d="M82.1421 25.0723C82.0442 25.1108 81.9375 25.1301 81.8221 25.1301C81.7067 25.1301 81.5983 25.1108 81.4968 25.0723C81.3954 25.0304 81.308 24.9744 81.2345 24.9045C81.0736 24.7576 80.9932 24.5984 80.9932 24.427C80.9932 24.2522 81.0142 24.114 81.0561 24.0126C81.0981 23.9111 81.1576 23.8237 81.2345 23.7502C81.3954 23.5929 81.593 23.5142 81.8274 23.5142C82.0547 23.5142 82.2453 23.5929 82.3992 23.7502C82.5496 23.9076 82.6248 24.1053 82.6248 24.3431C82.6248 24.6964 82.4639 24.9394 82.1421 25.0723ZM82.5409 26.1006C82.3835 26.5553 82.3048 27.4507 82.3048 28.7868L82.3415 31.2316C82.3415 31.445 82.3747 31.6094 82.4412 31.7248C82.5076 31.8367 82.6405 31.8927 82.8399 31.8927C83.0008 31.8927 83.1442 31.8717 83.2701 31.8297L83.1967 32.4488H80.3793L80.4738 31.8927C80.8165 31.8927 81.0491 31.7982 81.1716 31.6094C81.273 31.4485 81.3237 31.1809 81.3237 30.8067V28.0628C81.3237 27.6256 81.2468 27.3423 81.0929 27.2129C80.9704 27.1079 80.7011 27.0555 80.2849 27.0555L80.3689 26.3944L82.5409 26.1006Z" fill="#111111"/>
<path d="M79.4243 31.3314L79.6551 31.7773C79.3088 32.0991 78.8664 32.3264 78.3278 32.4593C78.1564 32.5048 77.9762 32.5275 77.7874 32.5275C77.5985 32.5275 77.4236 32.5066 77.2627 32.4646C77.1053 32.4226 76.9742 32.3509 76.8693 32.2495C76.6664 32.0536 76.5545 31.7056 76.5335 31.2054V27.0083H75.6206L75.6626 26.4732C76.1522 26.3857 76.4915 26.2021 76.6804 25.9223C76.8308 25.6985 76.9584 25.256 77.0634 24.595H77.6352V26.2056H79.5712V27.0083H77.5933V30.5969C77.5933 31.0341 77.6562 31.3226 77.7821 31.4625C77.8871 31.5779 78.1057 31.6356 78.4379 31.6356C78.7702 31.6356 79.099 31.5342 79.4243 31.3314Z" fill="#111111"/>
<path d="M74.0835 25.0723C73.9856 25.1108 73.8789 25.1301 73.7635 25.1301C73.6481 25.1301 73.5397 25.1108 73.4382 25.0723C73.3368 25.0304 73.2494 24.9744 73.1759 24.9045C73.015 24.7576 72.9346 24.5984 72.9346 24.427C72.9346 24.2522 72.9556 24.114 72.9975 24.0126C73.0395 23.9111 73.099 23.8237 73.1759 23.7502C73.3368 23.5929 73.5344 23.5142 73.7688 23.5142C73.9961 23.5142 74.1867 23.5929 74.3406 23.7502C74.491 23.9076 74.5662 24.1053 74.5662 24.3431C74.5662 24.6964 74.4053 24.9394 74.0835 25.0723ZM74.4823 26.1006C74.3249 26.5553 74.2462 27.4507 74.2462 28.7868L74.2829 31.2316C74.2829 31.445 74.3161 31.6094 74.3826 31.7248C74.449 31.8367 74.582 31.8927 74.7813 31.8927C74.9422 31.8927 75.0856 31.8717 75.2115 31.8297L75.1381 32.4488H72.3208L72.4152 31.8927C72.758 31.8927 72.9905 31.7982 73.113 31.6094C73.2144 31.4485 73.2651 31.1809 73.2651 30.8067V28.0628C73.2651 27.6256 73.1882 27.3423 73.0343 27.2129C72.9118 27.1079 72.6425 27.0555 72.2263 27.0555L72.3103 26.3944L74.4823 26.1006Z" fill="#111111"/>
<path d="M70.3428 31.4939C70.07 31.8122 69.7447 32.0641 69.367 32.2494C68.9927 32.4348 68.524 32.5275 67.9609 32.5275C67.4013 32.5275 66.8872 32.4296 66.4185 32.2337L65.7469 32.5695L65.6945 32.559C65.7364 31.8035 65.7574 31.2054 65.7574 30.7647V29.579L65.726 25.2874C65.726 24.9762 65.712 24.7873 65.684 24.7208C65.656 24.6509 65.6263 24.5984 65.5948 24.5634C65.5668 24.5285 65.5248 24.5005 65.4689 24.4795C65.4164 24.455 65.357 24.4393 65.2905 24.4323C65.1961 24.4183 65.0579 24.4113 64.876 24.4113H64.7449L64.8078 23.8132L66.9169 23.5037C66.8504 23.801 66.8172 24.6928 66.8172 26.1793L66.7752 26.8719C67.2124 26.5221 67.7056 26.286 68.2547 26.1636C68.4226 26.1251 68.615 26.1059 68.8318 26.1059C69.0522 26.1059 69.3092 26.1548 69.603 26.2528C69.9003 26.3507 70.1679 26.5151 70.4057 26.7459C70.9409 27.2671 71.2084 28.0453 71.2084 29.0806C71.2084 30.0214 70.9199 30.8259 70.3428 31.4939ZM66.8172 31.3313C66.9711 31.5586 67.2999 31.7213 67.8035 31.8192C67.9504 31.8472 68.1341 31.8612 68.3544 31.8612C68.5782 31.8612 68.8108 31.8 69.0522 31.6776C69.297 31.5551 69.5034 31.3803 69.6713 31.1529C70.007 30.6912 70.1749 30.0442 70.1749 29.2118C70.1749 28.5402 69.9983 28.0016 69.645 27.5959C69.2953 27.1936 68.8353 26.9925 68.2652 26.9925C68.0239 26.9925 67.7808 27.0415 67.536 27.1394C67.1302 27.3003 66.8872 27.4262 66.8067 27.5172L66.8172 27.5119V31.3313Z" fill="#111111"/>
<path d="M63.3494 25.0723C63.2515 25.1108 63.1448 25.1301 63.0294 25.1301C62.914 25.1301 62.8055 25.1108 62.7041 25.0723C62.6027 25.0304 62.5152 24.9744 62.4418 24.9045C62.2809 24.7576 62.2005 24.5984 62.2005 24.427C62.2005 24.2522 62.2214 24.114 62.2634 24.0126C62.3054 23.9111 62.3648 23.8237 62.4418 23.7502C62.6027 23.5929 62.8003 23.5142 63.0346 23.5142C63.262 23.5142 63.4526 23.5929 63.6065 23.7502C63.7569 23.9076 63.8321 24.1053 63.8321 24.3431C63.8321 24.6964 63.6712 24.9394 63.3494 25.0723ZM63.7481 26.1006C63.5908 26.5553 63.5121 27.4507 63.5121 28.7868L63.5488 31.2316C63.5488 31.445 63.582 31.6094 63.6485 31.7248C63.7149 31.8367 63.8478 31.8927 64.0472 31.8927C64.2081 31.8927 64.3515 31.8717 64.4774 31.8297L64.4039 32.4488H61.5866L61.6811 31.8927C62.0238 31.8927 62.2564 31.7982 62.3788 31.6094C62.4803 31.4485 62.531 31.1809 62.531 30.8067V28.0628C62.531 27.6256 62.454 27.3423 62.3001 27.2129C62.1777 27.1079 61.9084 27.0555 61.4922 27.0555L61.5761 26.3944L63.7481 26.1006Z" fill="#111111"/>
<path d="M56.0885 27.0502C56.8334 26.4207 57.5784 26.1059 58.3234 26.1059C59.0999 26.1059 59.6158 26.4539 59.8711 27.1499C59.9551 27.3843 59.997 27.6501 59.997 27.9474C59.997 28.2447 59.9918 28.5332 59.9813 28.813C59.9708 29.0928 59.9586 29.3744 59.9446 29.6577C59.8851 30.8574 59.8694 31.5097 59.8973 31.6146C59.9253 31.716 59.9551 31.7842 59.9865 31.8192C60.067 31.9102 60.3101 31.9154 60.7158 31.835L60.6528 32.4488H57.9614L58.0349 31.8927C58.4441 31.8927 58.6942 31.7458 58.7851 31.452C58.8725 31.1407 58.9198 30.749 58.9268 30.2768C58.9373 29.8046 58.9425 29.4496 58.9425 29.2118C58.9425 28.9704 58.939 28.7781 58.932 28.6346C58.9285 28.4878 58.9163 28.3426 58.8953 28.1992C58.8778 28.0523 58.8463 27.9106 58.8008 27.7742C58.7589 27.6343 58.6994 27.5119 58.6225 27.407C58.4546 27.1727 58.2167 27.0555 57.909 27.0555C57.4088 27.0555 56.9121 27.2059 56.419 27.5067L56.0885 27.7008V31.3575C56.0885 31.5709 56.1147 31.7073 56.1672 31.7668C56.2441 31.8507 56.3298 31.8927 56.4242 31.8927C56.683 31.8927 56.8859 31.8734 57.0328 31.835L56.9489 32.4488H54.2155L54.2994 31.8927C54.6247 31.8927 54.8346 31.7947 54.929 31.5989C55.0024 31.4415 55.0392 31.1005 55.0392 30.5758V25.2874C55.0392 24.9272 54.992 24.6894 54.8975 24.5739C54.7891 24.4655 54.546 24.4113 54.1683 24.4113H54.0371L54.1001 23.8132L56.2039 23.5037C56.1269 23.8394 56.0885 24.7313 56.0885 26.1793V27.0502Z" fill="#111111"/>
<path d="M50.7056 31.8926C51.1288 31.8926 51.3404 31.8209 51.3404 31.6775C51.3404 31.59 51.274 31.4536 51.1411 31.2682C50.7284 30.7121 50.3943 30.2749 50.139 29.9566C50.0341 30.0895 49.9344 30.2224 49.84 30.3554C49.5916 30.7051 49.4412 30.9185 49.3888 30.9954C49.3398 31.0724 49.2908 31.1441 49.2419 31.2105C49.067 31.4414 48.9795 31.5883 48.9795 31.6512C48.9795 31.7107 48.9918 31.7544 49.0163 31.7824C49.0408 31.8069 49.074 31.8261 49.116 31.8401C49.1999 31.8751 49.2751 31.8926 49.3416 31.8926C49.4884 31.8926 49.6214 31.8681 49.7403 31.8191L49.6668 32.4487H47.1695L47.2325 31.8926C47.5158 31.8926 47.7152 31.8471 47.8306 31.7561C47.9495 31.6652 48.0649 31.5498 48.1768 31.4099L49.7245 29.4425L48.8956 28.4194L47.8673 27.1183C47.6994 26.891 47.4546 26.7773 47.1328 26.7773L47.1958 26.2107H49.9344L49.8609 26.814C49.784 26.7895 49.6826 26.7773 49.5567 26.7773C49.3083 26.7773 49.1842 26.8543 49.1842 27.0081C49.1842 27.169 49.2891 27.3876 49.4989 27.6639L50.438 28.8601L51.0886 28.0942C51.2425 27.9018 51.3632 27.7409 51.4506 27.6115C51.6255 27.3457 51.7129 27.1481 51.7129 27.0186C51.7129 26.8578 51.6062 26.7773 51.3929 26.7773C51.288 26.7773 51.169 26.786 51.0361 26.8035L51.1201 26.2107H53.4495L53.3655 26.7773C53.0543 26.7773 52.6923 27.0466 52.2795 27.5853L50.8578 29.3585L52.1326 30.9062L52.7202 31.646C52.7797 31.7159 52.8566 31.7754 52.9511 31.8243C53.0455 31.8698 53.1242 31.8926 53.1872 31.8926C53.2956 31.8926 53.404 31.8681 53.5124 31.8191L53.4337 32.4487H50.6794L50.6427 32.4382C50.6532 32.2493 50.6741 32.0674 50.7056 31.8926Z" fill="#111111"/>
<path d="M44.5883 29.301L44.5778 29.4689H43.9325C43.908 29.0736 43.8626 28.8253 43.7961 28.7239C43.6772 28.5455 43.4621 28.4563 43.1508 28.4563H42.0963V30.9851C42.0963 31.3244 42.161 31.55 42.2904 31.6619C42.4163 31.7703 42.6874 31.8315 43.1036 31.8455H44.1056C44.8052 31.8455 45.2878 31.543 45.5536 30.9379C45.6376 30.749 45.6935 30.5356 45.7215 30.2978H46.3721C46.3721 30.6965 46.3319 31.1162 46.2514 31.5569L46.094 32.4488H40.0344L40.1236 31.8717C40.4734 31.8717 40.7025 31.7948 40.8109 31.6409C40.9088 31.508 40.9578 31.2404 40.9578 30.8382V26.043C40.9578 25.3679 40.8056 25.0304 40.5014 25.0304C40.3754 25.0304 40.2425 25.0462 40.1026 25.0776L40.1656 24.4218H44.2368C45.0797 24.4218 45.711 24.3939 46.1307 24.3379C46.1307 24.8975 46.0765 25.4571 45.9681 26.0167C45.9401 26.1497 45.9156 26.2511 45.8947 26.321H45.3595C45.3246 25.7544 45.2161 25.3959 45.0343 25.2455C44.9328 25.1616 44.7999 25.1091 44.6355 25.0881C44.4746 25.0671 44.2718 25.0566 44.0269 25.0566H42.0963V27.8635H43.1823C43.532 27.8635 43.7611 27.7883 43.8695 27.6379C43.9395 27.5434 43.9955 27.3231 44.0374 26.9768L44.6775 26.9716L44.6827 27.2496C44.6827 27.6938 44.6513 28.3776 44.5883 29.301Z" fill="#111111"/>
</svg>
