<svg width="55" height="29" viewBox="0 0 55 29" fill="none" xmlns="http://www.w3.org/2000/svg">
<path fill-rule="evenodd" clip-rule="evenodd" d="M17.4135 0.671919L18.231 0V4.99503C29.2489 3.70362 36.2054 4.22448 48.3259 6.56727L48.5561 6.61177L48.6691 6.81723C51.2336 11.4801 53.3192 15.8766 54.6232 23.1702L54.7507 23.8834L54.8711 23.9252L48.2832 28.1175L48.0453 28.0224C36.4606 23.3915 30.6379 21.3478 23.6733 20.1403C24.3162 21.2417 25.0705 22.3288 26.0712 23.6778L26.583 23.9768L21.795 28.1663L21.4873 27.9946C13.6586 23.627 8.75983 21.4458 0.617264 19.5449L0.000247955 19.4009L0.283798 18.8342C2.72475 13.9564 5.23298 10.9817 7.7029 8.72836C7.75289 8.64612 7.82622 8.57871 7.91518 8.53636C9.19876 7.38528 10.4712 6.42024 11.7175 5.47495L11.7176 5.47492C12.141 5.15379 12.5614 4.83494 12.9782 4.51184C14.2589 3.31913 15.7102 2.07189 17.4135 0.671919ZM17.231 2.12091C16.053 3.10273 15.0045 4.00964 14.053 4.88048C14.1031 4.94636 14.1375 5.02562 14.1499 5.11342C14.1883 5.38689 13.9977 5.63969 13.7242 5.67807C13.5976 5.69584 13.4754 5.66453 13.3769 5.59863C11.1028 7.82675 9.39906 9.70945 7.86633 11.8531C7.25631 12.7304 6.6546 13.6648 6.03614 14.6865C6.90052 14.8417 7.74363 15.0288 8.58163 15.2517C8.52306 15.1822 8.48271 15.0959 8.46915 14.9992C8.43076 14.7258 8.62133 14.473 8.89479 14.4346C9.16825 14.3962 9.42105 14.5868 9.45944 14.8602C9.49323 15.101 9.34954 15.3258 9.12806 15.4023C10.4846 15.7892 11.8369 16.2726 13.254 16.8694C16.7671 18.2577 19.8645 20.04 23.9493 22.4342L23.9011 22.3637C23.7365 22.3008 23.6101 22.1527 23.5839 21.9658C23.58 21.9378 23.5784 21.91 23.5792 21.8826C23.0329 21.0513 22.5685 20.2609 22.137 19.41C22.0686 19.5605 21.927 19.6739 21.7511 19.6986C21.4776 19.737 21.2248 19.5464 21.1864 19.2729C21.148 18.9995 21.3386 18.7467 21.6121 18.7083C21.6765 18.6992 21.7397 18.7029 21.7993 18.7174C21.4495 17.9713 21.1137 17.1637 20.7632 16.2347L20.5061 15.5535L21.2342 15.5582C21.7926 15.5618 22.3476 15.5732 22.9008 15.5925C22.9738 15.5229 23.0685 15.4746 23.176 15.4595C23.3478 15.4354 23.5115 15.5016 23.6189 15.622C29.6808 15.909 35.6061 17.1501 43.5099 19.4469C43.4473 19.376 43.4042 19.2866 43.39 19.186C43.3517 18.9126 43.5422 18.6598 43.8157 18.6214C44.0892 18.583 44.342 18.7736 44.3803 19.047C44.4154 19.2968 44.2595 19.5293 44.0238 19.597C45.8225 20.1243 47.7238 20.7052 49.7518 21.3409C49.7512 21.3377 49.7507 21.3344 49.7502 21.3311C49.7497 21.3283 49.7493 21.3255 49.7489 21.3227C49.7105 21.0493 49.9011 20.7965 50.1746 20.7581C50.448 20.7197 50.7008 20.9103 50.7392 21.1837C50.7619 21.3453 50.7046 21.4997 50.5976 21.6069C51.5331 21.9019 52.4953 22.2083 53.4865 22.5261C52.4252 17.0214 50.8936 13.2417 49.0205 9.59798C48.9487 9.73761 48.8124 9.84135 48.6451 9.86484C48.3717 9.90322 48.1189 9.71265 48.0805 9.43919C48.0421 9.16573 48.2327 8.91293 48.5061 8.87455C48.5528 8.868 48.5988 8.86812 48.6433 8.87417C48.4026 8.41823 48.1566 7.96278 47.9057 7.50466C47.3147 7.39095 46.7362 7.28167 46.1692 7.1768C46.1134 7.17581 46.0594 7.16552 46.0089 7.14723C40.7724 6.18297 36.5051 5.59857 32.3241 5.39102C32.3588 5.44774 32.3827 5.51236 32.3925 5.58242C32.4309 5.85588 32.2404 6.10868 31.9669 6.14706C31.6934 6.18545 31.4406 5.99488 31.4023 5.72142C31.3833 5.58639 31.4202 5.45641 31.4953 5.35478C27.2155 5.19306 22.9649 5.4274 17.7911 6.05455L17.231 6.12245V4.94593C17.1738 4.87697 17.1344 4.79177 17.121 4.69652C17.1007 4.55169 17.1446 4.41266 17.231 4.3082V2.12091ZM20.0831 7.81503C19.8096 7.85342 19.5568 7.66285 19.5185 7.38939C19.4801 7.11592 19.6706 6.86312 19.9441 6.82474C20.2176 6.78636 20.4704 6.97692 20.5088 7.25039C20.5471 7.52385 20.3566 7.77665 20.0831 7.81503ZM17.9545 10.6384C17.9929 10.9119 18.2457 11.1024 18.5191 11.0641C18.7926 11.0257 18.9832 10.7729 18.9448 10.4994C18.9064 10.2259 18.6536 10.0354 18.3801 10.0738C18.1067 10.1121 17.9161 10.3649 17.9545 10.6384ZM20.9171 13.7569C20.6436 13.7953 20.3908 13.6047 20.3524 13.3313C20.3141 13.0578 20.5046 12.805 20.7781 12.7666C21.0516 12.7283 21.3044 12.9188 21.3427 13.1923C21.3811 13.4657 21.1906 13.7185 20.9171 13.7569ZM18.789 16.5801C18.8274 16.8535 19.0802 17.0441 19.3536 17.0057C19.6271 16.9673 19.8176 16.7145 19.7793 16.4411C19.7409 16.1676 19.4881 15.977 19.2146 16.0154C18.9412 16.0538 18.7506 16.3066 18.789 16.5801ZM51.8771 18.4994C51.6036 18.5377 51.3508 18.3472 51.3124 18.0737C51.274 17.8003 51.4646 17.5475 51.7381 17.5091C52.0115 17.4707 52.2643 17.6613 52.3027 17.9347C52.3411 18.2082 52.1505 18.461 51.8771 18.4994ZM47.9156 19.0555C47.6422 19.0939 47.3894 18.9033 47.351 18.6299C47.3126 18.3564 47.5032 18.1036 47.7766 18.0652C48.0501 18.0268 48.3029 18.2174 48.3413 18.4909C48.3797 18.7643 48.1891 19.0171 47.9156 19.0555ZM49.4791 15.8065C49.2056 15.8449 48.9528 15.6543 48.9145 15.3808C48.8761 15.1074 49.0666 14.8546 49.3401 14.8162C49.6136 14.7778 49.8664 14.9684 49.9048 15.2418C49.9431 15.5153 49.7526 15.7681 49.4791 15.8065ZM47.0816 13.1136C46.8082 13.152 46.5554 12.9614 46.517 12.688C46.4786 12.4145 46.6692 12.1617 46.9426 12.1233C47.2161 12.0849 47.4689 12.2755 47.5073 12.549C47.5457 12.8224 47.3551 13.0752 47.0816 13.1136ZM14.828 17.136C14.8664 17.4094 15.1192 17.6 15.3927 17.5616C15.6661 17.5232 15.8567 17.2704 15.8183 16.997C15.7799 16.7235 15.5271 16.5329 15.2537 16.5713C14.9802 16.6097 14.7896 16.8625 14.828 17.136ZM16.3915 13.8872C16.4299 14.1607 16.6827 14.3512 16.9562 14.3128C17.2296 14.2745 17.4202 14.0217 17.3818 13.7482C17.3434 13.4747 17.0906 13.2842 16.8172 13.3225C16.5437 13.3609 16.3531 13.6137 16.3915 13.8872ZM13.9936 11.1941C14.0319 11.4675 14.2847 11.6581 14.5582 11.6197C14.8317 11.5813 15.0222 11.3285 14.9839 11.0551C14.9455 10.7816 14.6927 10.591 14.4192 10.6294C14.1457 10.6678 13.9552 10.9206 13.9936 11.1941ZM16.1222 8.37119C15.8487 8.40957 15.5959 8.219 15.5575 7.94554C15.5191 7.67208 15.7097 7.41928 15.9832 7.38089C16.2566 7.34251 16.5094 7.53308 16.5478 7.80654C16.5862 8.08 16.3956 8.3328 16.1222 8.37119ZM41.5567 16.9185C41.2833 16.9569 41.0305 16.7664 40.9921 16.4929C40.9537 16.2194 41.1443 15.9666 41.4177 15.9283C41.6912 15.8899 41.944 16.0804 41.9824 16.3539C42.0208 16.6274 41.8302 16.8802 41.5567 16.9185ZM39.1598 14.2257C38.8863 14.2641 38.6335 14.0735 38.5951 13.8C38.5567 13.5266 38.7473 13.2738 39.0208 13.2354C39.2942 13.197 39.547 13.3876 39.5854 13.661C39.6238 13.9345 39.4332 14.1873 39.1598 14.2257ZM40.7228 10.9767C40.4493 11.015 40.1965 10.8245 40.1581 10.551C40.1197 10.2775 40.3103 10.0247 40.5838 9.98636C40.8572 9.94798 41.11 10.1385 41.1484 10.412C41.1868 10.6855 40.9962 10.9383 40.7228 10.9767ZM38.3253 8.28378C38.0518 8.32217 37.799 8.1316 37.7607 7.85814C37.7223 7.58467 37.9128 7.33187 38.1863 7.29349C38.4598 7.25511 38.7126 7.44567 38.7509 7.71914C38.7893 7.9926 38.5988 8.2454 38.3253 8.28378ZM27.276 15.8936C27.0025 15.932 26.7497 15.7415 26.7113 15.468C26.673 15.1945 26.8635 14.9417 27.137 14.9034C27.4104 14.865 27.6632 15.0555 27.7016 15.329C27.74 15.6025 27.5494 15.8553 27.276 15.8936ZM28.2748 12.2192C28.3132 12.4927 28.566 12.6833 28.8395 12.6449C29.1129 12.6065 29.3035 12.3537 29.2651 12.0802C29.2267 11.8068 28.9739 11.6162 28.7005 11.6546C28.427 11.693 28.2364 11.9458 28.2748 12.2192ZM26.4415 9.95175C26.168 9.99014 25.9152 9.79957 25.8769 9.5261C25.8385 9.25264 26.029 8.99984 26.3025 8.96146C26.576 8.92308 26.8288 9.11364 26.8672 9.38711C26.9055 9.66057 26.715 9.91337 26.4415 9.95175ZM27.4408 6.27733C27.4792 6.55079 27.732 6.74136 28.0055 6.70297C28.2789 6.66459 28.4695 6.41179 28.4311 6.13833C28.3927 5.86486 28.1399 5.6743 27.8665 5.71268C27.593 5.75106 27.4024 6.00386 27.4408 6.27733ZM31.2374 15.3377C30.9639 15.3761 30.7111 15.1856 30.6728 14.9121C30.6344 14.6386 30.8249 14.3858 31.0984 14.3474C31.3719 14.3091 31.6247 14.4996 31.6631 14.7731C31.7014 15.0466 31.5109 15.2994 31.2374 15.3377ZM32.2362 11.6633C32.2746 11.9368 32.5274 12.1273 32.8009 12.089C33.0743 12.0506 33.2649 11.7978 33.2265 11.5243C33.1881 11.2509 32.9353 11.0603 32.6619 11.0987C32.3884 11.137 32.1979 11.3899 32.2362 11.6633ZM30.4034 9.39609C30.13 9.43447 29.8772 9.2439 29.8388 8.97044C29.8004 8.69698 29.991 8.44418 30.2644 8.4058C30.5379 8.36741 30.7907 8.55798 30.8291 8.83144C30.8675 9.1049 30.6769 9.3577 30.4034 9.39609ZM37.5958 17.4745C37.3223 17.5128 37.0695 17.3223 37.0312 17.0488C36.9928 16.7753 37.1833 16.5225 37.4568 16.4842C37.7303 16.4458 37.9831 16.6363 38.0215 16.9098C38.0598 17.1833 37.8693 17.4361 37.5958 17.4745ZM34.6337 14.3562C34.6721 14.6296 34.9249 14.8202 35.1983 14.7818C35.4718 14.7434 35.6624 14.4906 35.624 14.2172C35.5856 13.9437 35.3328 13.7532 35.0593 13.7915C34.7859 13.8299 34.5953 14.0827 34.6337 14.3562ZM36.1972 11.1072C36.2356 11.3806 36.4884 11.5712 36.7618 11.5328C37.0353 11.4944 37.2259 11.2416 37.1875 10.9682C37.1491 10.6947 36.8963 10.5041 36.6228 10.5425C36.3494 10.5809 36.1588 10.8337 36.1972 11.1072ZM33.7997 8.41429C33.8381 8.68775 34.0909 8.87832 34.3644 8.83994C34.6378 8.80155 34.8284 8.54875 34.79 8.27529C34.7516 8.00183 34.4988 7.81126 34.2254 7.84964C33.9519 7.88803 33.7613 8.14083 33.7997 8.41429ZM45.5182 16.3626C45.2447 16.401 44.9919 16.2105 44.9535 15.937C44.9151 15.6635 45.1057 15.4107 45.3792 15.3723C45.6526 15.334 45.9054 15.5245 45.9438 15.798C45.9822 16.0715 45.7916 16.3243 45.5182 16.3626ZM43.1207 13.6698C42.8472 13.7082 42.5944 13.5176 42.5561 13.2441C42.5177 12.9707 42.7082 12.7179 42.9817 12.6795C43.2552 12.6411 43.508 12.8317 43.5464 13.1051C43.5847 13.3786 43.3942 13.6314 43.1207 13.6698ZM44.6842 10.421C44.4107 10.4594 44.1579 10.2688 44.1195 9.99534C44.0812 9.72188 44.2717 9.46908 44.5452 9.4307C44.8186 9.39231 45.0714 9.58288 45.1098 9.85634C45.1482 10.1298 44.9576 10.3826 44.6842 10.421ZM12.4301 14.4431C12.4685 14.7166 12.7213 14.9071 12.9947 14.8687C13.2682 14.8304 13.4588 14.5776 13.4204 14.3041C13.382 14.0306 13.1292 13.8401 12.8557 13.8785C12.5823 13.9168 12.3917 14.1696 12.4301 14.4431ZM42.2862 7.72812C42.0128 7.7665 41.76 7.57593 41.7216 7.30247C41.6832 7.02901 41.8738 6.77621 42.1472 6.73783C42.4207 6.69944 42.6735 6.89001 42.7119 7.16347C42.7503 7.43693 42.5597 7.68973 42.2862 7.72812ZM10.0326 11.7502C10.071 12.0237 10.3238 12.2143 10.5973 12.1759C10.8707 12.1375 11.0613 11.8847 11.0229 11.6112C10.9845 11.3378 10.7317 11.1472 10.4583 11.1856C10.1848 11.224 9.99424 11.4768 10.0326 11.7502ZM12.1607 8.92709C11.8873 8.96548 11.6345 8.77491 11.5961 8.50145C11.5577 8.22799 11.7483 7.97518 12.0217 7.9368C12.2952 7.89842 12.548 8.08899 12.5864 8.36245C12.6248 8.63591 12.4342 8.88871 12.1607 8.92709ZM24.878 13.2008C24.6046 13.2392 24.3518 13.0486 24.3134 12.7751C24.275 12.5017 24.4656 12.2489 24.739 12.2105C25.0125 12.1721 25.2653 12.3627 25.3037 12.6361C25.3421 12.9096 25.1515 13.1624 24.878 13.2008ZM21.9159 10.0823C21.9543 10.3557 22.2071 10.5463 22.4806 10.5079C22.754 10.4695 22.9446 10.2167 22.9062 9.94326C22.8678 9.6698 22.615 9.47923 22.3416 9.51761C22.0681 9.55599 21.8775 9.8088 21.9159 10.0823ZM24.0445 7.25912C23.7711 7.29751 23.5183 7.10694 23.4799 6.83348C23.4415 6.56002 23.6321 6.30722 23.9055 6.26883C24.179 6.23045 24.4318 6.42102 24.4702 6.69448C24.5086 6.96794 24.318 7.22074 24.0445 7.25912Z" fill="black"/>
</svg>
