<svg width="55" height="29" viewBox="0 0 55 29" fill="none" xmlns="http://www.w3.org/2000/svg">
<path fill-rule="evenodd" clip-rule="evenodd" d="M37.4576 0.671919L36.6401 0V4.99503C25.6222 3.70362 18.6657 4.22448 6.54523 6.56727L6.31501 6.61177L6.20201 6.81723C3.63752 11.4801 1.55194 15.8766 0.247924 23.1702L0.120417 23.8834L0 23.9252L6.58786 28.1175L6.82575 28.0224C18.4104 23.3915 24.2332 21.3478 31.1978 20.1403C30.5549 21.2417 29.8006 22.3288 28.7998 23.6778L28.2881 23.9768L33.0761 28.1663L33.3838 27.9946C41.2125 23.627 46.1113 21.4458 54.2538 19.5449L54.8708 19.4009L54.5873 18.8342C52.1463 13.9564 49.6381 10.9817 47.1682 8.72836C47.1182 8.64612 47.0449 8.57871 46.9559 8.53636C45.6723 7.38528 44.3999 6.42024 43.1536 5.47495L43.1535 5.47492C42.7301 5.15379 42.3097 4.83494 41.8929 4.51184C40.6122 3.31913 39.1609 2.07189 37.4576 0.671919ZM37.6401 2.12091C38.8181 3.10273 39.8666 4.00964 40.8181 4.88048C40.768 4.94636 40.7336 5.02562 40.7212 5.11342C40.6828 5.38689 40.8734 5.63969 41.1469 5.67807C41.2735 5.69584 41.3957 5.66453 41.4942 5.59863C43.7683 7.82675 45.472 9.70945 47.0048 11.8531C47.6148 12.7304 48.2165 13.6648 48.835 14.6865C47.9706 14.8417 47.1275 15.0288 46.2895 15.2517C46.348 15.1822 46.3884 15.0959 46.4019 14.9992C46.4403 14.7258 46.2498 14.473 45.9763 14.4346C45.7028 14.3962 45.45 14.5868 45.4117 14.8602C45.3779 15.101 45.5216 15.3258 45.743 15.4023C44.3865 15.7892 43.0342 16.2726 41.6171 16.8694C38.104 18.2577 35.0066 20.04 30.9218 22.4342L30.97 22.3637C31.1346 22.3008 31.261 22.1527 31.2872 21.9658C31.2911 21.9378 31.2927 21.91 31.2919 21.8826C31.8382 21.0513 32.3026 20.2609 32.7341 19.41C32.8025 19.5605 32.9441 19.6739 33.12 19.6986C33.3935 19.737 33.6463 19.5464 33.6847 19.2729C33.723 18.9995 33.5325 18.7467 33.259 18.7083C33.1946 18.6992 33.1313 18.7029 33.0718 18.7174C33.4216 17.9713 33.7574 17.1637 34.1079 16.2347L34.365 15.5535L33.6369 15.5582C33.0785 15.5618 32.5235 15.5732 31.9703 15.5925C31.8973 15.5229 31.8026 15.4746 31.695 15.4595C31.5233 15.4354 31.3596 15.5016 31.2522 15.622C25.1903 15.909 19.265 17.1501 11.3612 19.4469C11.4238 19.376 11.4669 19.2866 11.481 19.186C11.5194 18.9126 11.3289 18.6598 11.0554 18.6214C10.7819 18.583 10.5291 18.7736 10.4908 19.047C10.4557 19.2968 10.6116 19.5293 10.8473 19.597C9.04855 20.1243 7.14726 20.7052 5.11927 21.3409C5.11985 21.3377 5.1204 21.3344 5.12092 21.3311C5.12136 21.3283 5.12177 21.3255 5.12216 21.3227C5.16054 21.0493 4.96998 20.7965 4.69652 20.7581C4.42305 20.7197 4.17025 20.9103 4.13187 21.1837C4.10919 21.3453 4.16646 21.4997 4.27352 21.6069C3.33804 21.9019 2.37582 22.2083 1.38463 22.5261C2.44594 17.0214 3.97748 13.2417 5.85058 9.59798C5.92238 9.73761 6.05866 9.84135 6.22597 9.86484C6.49943 9.90322 6.75223 9.71265 6.79062 9.43919C6.829 9.16573 6.63843 8.91293 6.36497 8.87455C6.31833 8.868 6.27229 8.86812 6.22782 8.87417C6.46853 8.41823 6.71448 7.96278 6.96542 7.50466C7.55638 7.39095 8.13485 7.28167 8.70193 7.1768C8.75765 7.17581 8.81165 7.16552 8.86219 7.14723C14.0987 6.18297 18.3659 5.59857 22.547 5.39102C22.5123 5.44774 22.4884 5.51236 22.4785 5.58242C22.4402 5.85588 22.6307 6.10868 22.9042 6.14706C23.1777 6.18545 23.4305 5.99488 23.4688 5.72142C23.4878 5.58639 23.4509 5.45641 23.3758 5.35478C27.6556 5.19306 31.9062 5.4274 37.08 6.05455L37.6401 6.12245V4.94593C37.6973 4.87697 37.7367 4.79177 37.7501 4.69652C37.7704 4.55169 37.7265 4.41266 37.6401 4.3082V2.12091ZM34.788 7.81503C35.0614 7.85342 35.3142 7.66285 35.3526 7.38939C35.391 7.11592 35.2004 6.86312 34.927 6.82474C34.6535 6.78636 34.4007 6.97692 34.3623 7.25039C34.324 7.52385 34.5145 7.77665 34.788 7.81503ZM36.9166 10.6384C36.8782 10.9119 36.6254 11.1024 36.352 11.0641C36.0785 11.0257 35.8879 10.7729 35.9263 10.4994C35.9647 10.2259 36.2175 10.0354 36.491 10.0738C36.7644 10.1121 36.955 10.3649 36.9166 10.6384ZM33.954 13.7569C34.2275 13.7953 34.4803 13.6047 34.5186 13.3313C34.557 13.0578 34.3665 12.805 34.093 12.7666C33.8195 12.7283 33.5667 12.9188 33.5284 13.1923C33.49 13.4657 33.6805 13.7185 33.954 13.7569ZM36.0821 16.5801C36.0437 16.8535 35.7909 17.0441 35.5175 17.0057C35.244 16.9673 35.0534 16.7145 35.0918 16.4411C35.1302 16.1676 35.383 15.977 35.6565 16.0154C35.9299 16.0538 36.1205 16.3066 36.0821 16.5801ZM2.99404 18.4994C3.2675 18.5377 3.5203 18.3472 3.55868 18.0737C3.59707 17.8003 3.4065 17.5475 3.13304 17.5091C2.85958 17.4707 2.60678 17.6613 2.56839 17.9347C2.53001 18.2082 2.72058 18.461 2.99404 18.4994ZM6.95546 19.0555C7.22893 19.0939 7.48173 18.9033 7.52011 18.6299C7.55849 18.3564 7.36793 18.1036 7.09446 18.0652C6.821 18.0268 6.5682 18.2174 6.52982 18.4909C6.49143 18.7643 6.682 19.0171 6.95546 19.0555ZM5.39199 15.8065C5.66545 15.8449 5.91825 15.6543 5.95663 15.3808C5.99502 15.1074 5.80445 14.8546 5.53099 14.8162C5.25753 14.7778 5.00472 14.9684 4.96634 15.2418C4.92796 15.5153 5.11853 15.7681 5.39199 15.8065ZM7.78945 13.1136C8.06291 13.152 8.31571 12.9614 8.35409 12.688C8.39248 12.4145 8.20191 12.1617 7.92845 12.1233C7.65499 12.0849 7.40219 12.2755 7.3638 12.549C7.32542 12.8224 7.51599 13.0752 7.78945 13.1136ZM40.0431 17.136C40.0047 17.4094 39.7519 17.6 39.4784 17.5616C39.205 17.5232 39.0144 17.2704 39.0528 16.997C39.0912 16.7235 39.344 16.5329 39.6174 16.5713C39.8909 16.6097 40.0814 16.8625 40.0431 17.136ZM38.4796 13.8872C38.4412 14.1607 38.1884 14.3512 37.9149 14.3128C37.6415 14.2745 37.4509 14.0217 37.4893 13.7482C37.5277 13.4747 37.7805 13.2842 38.0539 13.3225C38.3274 13.3609 38.518 13.6137 38.4796 13.8872ZM40.8775 11.1941C40.8391 11.4675 40.5863 11.6581 40.3129 11.6197C40.0394 11.5813 39.8489 11.3285 39.8872 11.0551C39.9256 10.7816 40.1784 10.591 40.4519 10.6294C40.7253 10.6678 40.9159 10.9206 40.8775 11.1941ZM38.7489 8.37119C39.0224 8.40957 39.2752 8.219 39.3136 7.94554C39.352 7.67208 39.1614 7.41928 38.8879 7.38089C38.6145 7.34251 38.3617 7.53308 38.3233 7.80654C38.2849 8.08 38.4755 8.3328 38.7489 8.37119ZM13.3144 16.9185C13.5878 16.9569 13.8406 16.7664 13.879 16.4929C13.9174 16.2194 13.7268 15.9666 13.4534 15.9283C13.1799 15.8899 12.9271 16.0804 12.8887 16.3539C12.8503 16.6274 13.0409 16.8802 13.3144 16.9185ZM15.7113 14.2257C15.9848 14.2641 16.2376 14.0735 16.276 13.8C16.3144 13.5266 16.1238 13.2738 15.8503 13.2354C15.5769 13.197 15.3241 13.3876 15.2857 13.661C15.2473 13.9345 15.4379 14.1873 15.7113 14.2257ZM14.1483 10.9767C14.4218 11.015 14.6746 10.8245 14.713 10.551C14.7514 10.2775 14.5608 10.0247 14.2873 9.98636C14.0139 9.94798 13.7611 10.1385 13.7227 10.412C13.6843 10.6855 13.8749 10.9383 14.1483 10.9767ZM16.5458 8.28378C16.8193 8.32217 17.0721 8.1316 17.1104 7.85814C17.1488 7.58467 16.9583 7.33187 16.6848 7.29349C16.4113 7.25511 16.1585 7.44567 16.1201 7.71914C16.0818 7.9926 16.2723 8.2454 16.5458 8.28378ZM27.5951 15.8936C27.8686 15.932 28.1214 15.7415 28.1598 15.468C28.1981 15.1945 28.0076 14.9417 27.7341 14.9034C27.4607 14.865 27.2078 15.0555 27.1695 15.329C27.1311 15.6025 27.3217 15.8553 27.5951 15.8936ZM26.5963 12.2192C26.5579 12.4927 26.3051 12.6833 26.0316 12.6449C25.7582 12.6065 25.5676 12.3537 25.606 12.0802C25.6444 11.8068 25.8972 11.6162 26.1706 11.6546C26.4441 11.693 26.6347 11.9458 26.5963 12.2192ZM28.4296 9.95175C28.703 9.99014 28.9558 9.79957 28.9942 9.5261C29.0326 9.25264 28.842 8.99984 28.5686 8.96146C28.2951 8.92308 28.0423 9.11364 28.0039 9.38711C27.9656 9.66057 28.1561 9.91337 28.4296 9.95175ZM27.4303 6.27733C27.3919 6.55079 27.1391 6.74136 26.8656 6.70297C26.5922 6.66459 26.4016 6.41179 26.44 6.13833C26.4784 5.86486 26.7312 5.6743 27.0046 5.71268C27.2781 5.75106 27.4687 6.00386 27.4303 6.27733ZM23.6337 15.3377C23.9071 15.3761 24.1599 15.1856 24.1983 14.9121C24.2367 14.6386 24.0461 14.3858 23.7727 14.3474C23.4992 14.3091 23.2464 14.4996 23.208 14.7731C23.1697 15.0466 23.3602 15.2994 23.6337 15.3377ZM22.6349 11.6633C22.5965 11.9368 22.3437 12.1273 22.0702 12.089C21.7967 12.0506 21.6062 11.7978 21.6446 11.5243C21.6829 11.2509 21.9357 11.0603 22.2092 11.0987C22.4827 11.137 22.6732 11.3899 22.6349 11.6633ZM24.4677 9.39609C24.7411 9.43447 24.9939 9.2439 25.0323 8.97044C25.0707 8.69698 24.8801 8.44418 24.6067 8.4058C24.3332 8.36741 24.0804 8.55798 24.042 8.83144C24.0036 9.1049 24.1942 9.3577 24.4677 9.39609ZM17.2753 17.4745C17.5487 17.5128 17.8016 17.3223 17.8399 17.0488C17.8783 16.7753 17.6877 16.5225 17.4143 16.4842C17.1408 16.4458 16.888 16.6363 16.8496 16.9098C16.8113 17.1833 17.0018 17.4361 17.2753 17.4745ZM20.2374 14.3562C20.199 14.6296 19.9462 14.8202 19.6727 14.7818C19.3993 14.7434 19.2087 14.4906 19.2471 14.2172C19.2855 13.9437 19.5383 13.7532 19.8117 13.7915C20.0852 13.8299 20.2758 14.0827 20.2374 14.3562ZM18.6739 11.1072C18.6355 11.3806 18.3827 11.5712 18.1093 11.5328C17.8358 11.4944 17.6452 11.2416 17.6836 10.9682C17.722 10.6947 17.9748 10.5041 18.2483 10.5425C18.5217 10.5809 18.7123 10.8337 18.6739 11.1072ZM21.0714 8.41429C21.033 8.68775 20.7802 8.87832 20.5067 8.83994C20.2333 8.80155 20.0427 8.54875 20.0811 8.27529C20.1195 8.00183 20.3723 7.81126 20.6457 7.84964C20.9192 7.88803 21.1098 8.14083 21.0714 8.41429ZM9.35293 16.3626C9.62639 16.401 9.87919 16.2105 9.91757 15.937C9.95595 15.6635 9.76539 15.4107 9.49193 15.3723C9.21846 15.334 8.96566 15.5245 8.92728 15.798C8.8889 16.0715 9.07946 16.3243 9.35293 16.3626ZM11.7504 13.6698C12.0238 13.7082 12.2766 13.5176 12.315 13.2441C12.3534 12.9707 12.1628 12.7179 11.8894 12.6795C11.6159 12.6411 11.3631 12.8317 11.3247 13.1051C11.2864 13.3786 11.4769 13.6314 11.7504 13.6698ZM10.1869 10.421C10.4604 10.4594 10.7132 10.2688 10.7516 9.99534C10.7899 9.72188 10.5994 9.46908 10.3259 9.4307C10.0524 9.39231 9.79965 9.58288 9.76126 9.85634C9.72288 10.1298 9.91345 10.3826 10.1869 10.421ZM42.441 14.4431C42.4026 14.7166 42.1498 14.9071 41.8764 14.8687C41.6029 14.8304 41.4123 14.5776 41.4507 14.3041C41.4891 14.0306 41.7419 13.8401 42.0154 13.8785C42.2888 13.9168 42.4794 14.1696 42.441 14.4431ZM12.5849 7.72812C12.8583 7.7665 13.1111 7.57593 13.1495 7.30247C13.1879 7.02901 12.9973 6.77621 12.7239 6.73783C12.4504 6.69944 12.1976 6.89001 12.1592 7.16347C12.1208 7.43693 12.3114 7.68973 12.5849 7.72812ZM44.8385 11.7502C44.8001 12.0237 44.5473 12.2143 44.2738 12.1759C44.0004 12.1375 43.8098 11.8847 43.8482 11.6112C43.8866 11.3378 44.1394 11.1472 44.4128 11.1856C44.6863 11.224 44.8769 11.4768 44.8385 11.7502ZM42.7104 8.92709C42.9838 8.96548 43.2366 8.77491 43.275 8.50145C43.3134 8.22799 43.1228 7.97518 42.8493 7.9368C42.5759 7.89842 42.3231 8.08899 42.2847 8.36245C42.2463 8.63591 42.4369 8.88871 42.7104 8.92709ZM29.9931 13.2008C30.2665 13.2392 30.5193 13.0486 30.5577 12.7751C30.5961 12.5017 30.4055 12.2489 30.1321 12.2105C29.8586 12.1721 29.6058 12.3627 29.5674 12.6361C29.529 12.9096 29.7196 13.1624 29.9931 13.2008ZM32.9552 10.0823C32.9168 10.3557 32.664 10.5463 32.3905 10.5079C32.1171 10.4695 31.9265 10.2167 31.9649 9.94326C32.0033 9.6698 32.2561 9.47923 32.5295 9.51761C32.803 9.55599 32.9936 9.8088 32.9552 10.0823ZM30.8266 7.25912C31.1 7.29751 31.3528 7.10694 31.3912 6.83348C31.4296 6.56002 31.239 6.30722 30.9656 6.26883C30.6921 6.23045 30.4393 6.42102 30.4009 6.69448C30.3625 6.96794 30.5531 7.22074 30.8266 7.25912Z" fill="black"/>
</svg>
